<svg width="20" height="22" viewBox="0 0 20 22" fill="none" xmlns="http://www.w3.org/2000/svg">
<path d="M17.5833 2.25H16.5V0.0833359H14.3333V2.25H5.66667V0.0833359H3.5V2.25H2.41667C1.21417 2.25 0.25 3.225 0.25 4.41667V19.5833C0.25 20.775 1.21417 21.75 2.41667 21.75H17.5833C18.775 21.75 19.75 20.775 19.75 19.5833V4.41667C19.75 3.225 18.775 2.25 17.5833 2.25ZM10 5.5C11.7983 5.5 13.25 6.95167 13.25 8.75C13.25 10.5483 11.7983 12 10 12C8.20167 12 6.75 10.5483 6.75 8.75C6.75 6.95167 8.20167 5.5 10 5.5ZM16.5 18.5H3.5V17.4167C3.5 15.25 7.83333 14.0583 10 14.0583C12.1667 14.0583 16.5 15.25 16.5 17.4167V18.5Z" fill="#FFFEFE"/>
</svg>
