<svg width="25" height="23" viewBox="0 0 25 23" fill="none" xmlns="http://www.w3.org/2000/svg">
<g clip-path="url(#clip0)">
<path d="M8.75 11.7027C11.5117 11.7027 13.75 9.24059 13.75 6.2027C13.75 3.16481 11.5117 0.702698 8.75 0.702698C5.98828 0.702698 3.75 3.16481 3.75 6.2027C3.75 9.24059 5.98828 11.7027 8.75 11.7027ZM12.25 13.0777H11.5977C10.7305 13.516 9.76562 13.7652 8.75 13.7652C7.73438 13.7652 6.77344 13.516 5.90234 13.0777H5.25C2.35156 13.0777 0 15.6644 0 18.8527V20.6402C0 21.7789 0.839844 22.7027 1.875 22.7027H12.6133C12.5195 22.4105 12.4805 22.1011 12.5117 21.7875L12.7773 19.1707L12.8242 18.6937L13.1328 18.3543L16.1523 15.0328C15.1953 13.8425 13.8086 13.0777 12.25 13.0777ZM14.0195 19.3211L13.7539 21.9422C13.7109 22.3804 14.0469 22.75 14.4414 22.6984L16.8203 22.4062L22.207 16.4808L19.4062 13.4L14.0195 19.3211ZM24.7266 12.257L23.2461 10.6285C22.8828 10.2289 22.2891 10.2289 21.9258 10.6285L20.4492 12.2527L20.2891 12.4289L23.0938 15.5097L24.7266 13.7136C25.0898 13.3097 25.0898 12.6609 24.7266 12.257Z" fill="#F2F2F2"/>
</g>
<defs>
<clipPath id="clip0">
<rect width="25" height="22" fill="white" transform="translate(0 0.702698)"/>
</clipPath>
</defs>
</svg>
