<svg width="30" height="30" viewBox="0 0 30 30" fill="none" xmlns="http://www.w3.org/2000/svg">
<path d="M30 24.3188L29.6577 24.042C28.6867 23.249 27.8367 22.3396 27.1309 21.3384C26.36 19.9566 25.8979 18.4476 25.7718 16.9V12.3417C25.7785 9.9108 24.8165 7.56137 23.0665 5.73481C21.3166 3.90824 18.8992 2.73026 16.2685 2.42219V1.23186C16.2685 0.905149 16.1269 0.591821 15.8748 0.360803C15.6228 0.129785 15.2809 0 14.9245 0C14.5681 0 14.2262 0.129785 13.9742 0.360803C13.7221 0.591821 13.5805 0.905149 13.5805 1.23186V2.44065C10.9734 2.77092 8.58521 3.95602 6.85825 5.77645C5.1313 7.59688 4.18261 9.92928 4.18792 12.3417V16.9C4.06183 18.4476 3.59978 19.9566 2.82886 21.3384C2.13512 22.3371 1.29885 23.2464 0.342282 24.042L0 24.3188V26.9209H30V24.3188Z" fill="#871E99"/>
<path d="M12.3523 27.8898C12.4406 28.4747 12.7568 29.0106 13.2425 29.3985C13.7283 29.7863 14.3508 30 14.995 30C15.6392 30 16.2617 29.7863 16.7474 29.3985C17.2332 29.0106 17.5494 28.4747 17.6377 27.8898H12.3523Z" fill="#871E99"/>
</svg>
