<svg width="24" height="23" viewBox="0 0 24 23" fill="none" xmlns="http://www.w3.org/2000/svg">
<path fill-rule="evenodd" clip-rule="evenodd" d="M22.7027 20.7568H7.78378C7.16757 20.7568 5.18919 18.4865 5.18919 18.4865C5.18919 18.4865 7.16757 16.2162 7.78378 16.2162H22.7027C23.4162 16.2162 24 16.8 24 17.5135V19.4595C24 20.173 23.4162 20.7568 22.7027 20.7568ZM22.7027 13.6216H7.78378C7.16757 13.6216 5.18919 11.3514 5.18919 11.3514C5.18919 11.3514 7.16757 9.08108 7.78378 9.08108H22.7027C23.4162 9.08108 24 9.66486 24 10.3784V12.3243C24 13.0378 23.4162 13.6216 22.7027 13.6216ZM22.7027 6.48649H7.78378C7.16757 6.48649 5.18919 4.21622 5.18919 4.21622C5.18919 4.21622 7.16757 1.94595 7.78378 1.94595H22.7027C23.4162 1.94595 24 2.52973 24 3.24324V5.18919C24 5.9027 23.4162 6.48649 22.7027 6.48649ZM1.62162 20.1081C0.713513 20.1081 0 19.3946 0 18.4865C0 17.5784 0.713513 16.8649 1.62162 16.8649C2.52973 16.8649 3.24324 17.5784 3.24324 18.4865C3.24324 19.3946 2.52973 20.1081 1.62162 20.1081ZM1.94595 13.5892V16.2486C1.84865 16.2486 1.71892 16.2162 1.62162 16.2162C1.52432 16.2162 1.39459 16.2486 1.2973 16.2486V13.5892C1.39459 13.5892 1.52432 13.6216 1.62162 13.6216C1.71892 13.6216 1.84865 13.5892 1.94595 13.5892ZM1.62162 12.973C0.713513 12.973 0 12.2595 0 11.3514C0 10.4432 0.713513 9.72973 1.62162 9.72973C2.52973 9.72973 3.24324 10.4432 3.24324 11.3514C3.24324 12.2595 2.52973 12.973 1.62162 12.973ZM1.94595 6.45405V9.11351C1.84865 9.11351 1.71892 9.08108 1.62162 9.08108C1.52432 9.08108 1.39459 9.11351 1.2973 9.11351V6.45405C1.39459 6.45405 1.52432 6.48649 1.62162 6.48649C1.71892 6.48649 1.84865 6.45405 1.94595 6.45405ZM1.62162 5.83784C0.713513 5.83784 0 5.12432 0 4.21622C0 3.30811 0.713513 2.59459 1.62162 2.59459C2.52973 2.59459 3.24324 3.30811 3.24324 4.21622C3.24324 5.12432 2.52973 5.83784 1.62162 5.83784ZM1.2973 1.97838V0.324324C1.2973 0.12973 1.42703 0 1.62162 0C1.81622 0 1.94595 0.12973 1.94595 0.324324V1.97838C1.84865 1.97838 1.71892 1.94595 1.62162 1.94595C1.52432 1.94595 1.39459 1.97838 1.2973 1.97838ZM1.94595 20.7243V22.3784C1.94595 22.573 1.81622 22.7027 1.62162 22.7027C1.42703 22.7027 1.2973 22.573 1.2973 22.3784V20.7243C1.39459 20.7243 1.52432 20.7568 1.62162 20.7568C1.71892 20.7568 1.84865 20.7243 1.94595 20.7243Z" fill="white"/>
</svg>
